<svg xmlns="http://www.w3.org/2000/svg" xmlns:xlink="http://www.w3.org/1999/xlink" width="500" zoomAndPan="magnify" viewBox="0 0 375 374.999991" height="500" preserveAspectRatio="xMidYMid meet" version="1.0"><defs><clipPath id="aad4ffeb5e"><path d="M 127 226 L 158 226 L 158 237.5625 L 127 237.5625 Z M 127 226 " clip-rule="nonzero"/></clipPath><clipPath id="da0efe7f80"><path d="M 112.5 179 L 262.5 179 L 262.5 237.5625 L 112.5 237.5625 Z M 112.5 179 " clip-rule="nonzero"/></clipPath><clipPath id="2a904a0523"><path d="M 112.5 189 L 146 189 L 146 237.5625 L 112.5 237.5625 Z M 112.5 189 " clip-rule="nonzero"/></clipPath><clipPath id="9305730330"><path d="M 204 213 L 262.5 213 L 262.5 237.5625 L 204 237.5625 Z M 204 213 " clip-rule="nonzero"/></clipPath><clipPath id="bc2b68b58b"><path d="M 177 219 L 206 219 L 206 237.5625 L 177 237.5625 Z M 177 219 " clip-rule="nonzero"/></clipPath><clipPath id="1c1c924f11"><path d="M 164 137.8125 L 251 137.8125 L 251 199 L 164 199 Z M 164 137.8125 " clip-rule="nonzero"/></clipPath></defs><path fill="#c6683e" d="M 261.144531 226.359375 C 260.070312 236.273438 246.113281 236.492188 246.113281 236.492188 C 246.113281 236.492188 227.386719 236.492188 205.164062 236.492188 L 133.375 236.492188 C 132.082031 236.492188 130.644531 236.519531 129.15625 236.527344 C 121.777344 236.597656 113.117188 236.410156 113.816406 231.75 C 114.628906 226.289062 116.117188 227.375 119.5625 223.460938 C 119.660156 223.355469 119.753906 223.242188 119.847656 223.132812 C 122.871094 219.5625 122.949219 220.421875 125.566406 212.035156 C 126.109375 210.285156 126.765625 208.132812 127.582031 205.453125 C 128.472656 202.542969 129.605469 200.214844 130.867188 198.355469 C 136.34375 190.300781 144.1875 191.011719 144.1875 191.011719 C 148.160156 185.394531 155.492188 180.804688 164.941406 180.804688 C 181.046875 180.804688 187.511719 189.929688 187.511719 189.929688 C 187.511719 189.929688 223.5625 177 238.808594 185.1875 C 243.683594 187.804688 246.796875 191.257812 248.789062 194.746094 C 253.019531 202.175781 252.125 209.761719 252.125 209.761719 C 253.570312 210.691406 255.957031 212.273438 257.929688 214.769531 C 259.671875 216.96875 261.085938 219.878906 261.238281 223.683594 C 261.269531 224.523438 261.242188 225.421875 261.144531 226.359375 Z M 261.144531 226.359375 " fill-opacity="1" fill-rule="nonzero"/><path fill="#ffffff" d="M 156.304688 236.484375 L 154.578125 236.484375 C 153.4375 229.285156 145.464844 229.078125 145.464844 229.078125 L 131.160156 229.078125 L 131.679688 227.265625 L 147.042969 227.265625 C 147.050781 227.265625 156.304688 227.507812 156.304688 236.484375 Z M 156.304688 236.484375 " fill-opacity="0.6" fill-rule="nonzero"/><path fill="#000072" d="M 253.636719 217.464844 C 253.636719 217.464844 245.203125 212.464844 235.742188 218.355469 C 235.738281 218.355469 245.109375 221.597656 253.636719 217.464844 Z M 253.636719 217.464844 " fill-opacity="0.2" fill-rule="nonzero"/><path fill="#ffffff" d="M 243.445312 206.894531 C 243.445312 206.894531 213.585938 183.691406 197.746094 218.230469 C 197.746094 218.230469 201.410156 199.125 220.796875 197.328125 C 237.140625 195.816406 243.445312 206.894531 243.445312 206.894531 Z M 243.445312 206.894531 " fill-opacity="0.6" fill-rule="nonzero"/><path fill="#de9a5b" d="M 186.933594 236.484375 L 160.203125 236.484375 C 158.035156 234.460938 156.421875 231.664062 156.578125 228.757812 C 156.734375 225.980469 158.585938 223.503906 160.933594 222.027344 C 163.285156 220.554688 166.484375 219.925781 169.242188 219.636719 C 172.726562 219.277344 175.851562 219.414062 179.3125 219.96875 C 183.277344 220.597656 187.566406 222.167969 189.339844 225.78125 C 191.070312 229.289062 189.695312 233.675781 186.933594 236.484375 Z M 186.933594 236.484375 " fill-opacity="1" fill-rule="nonzero"/><path fill="#6d3218" d="M 188.644531 191.992188 C 188.644531 191.992188 193.875 195.945312 194.878906 203.417969 C 195.882812 210.890625 199.300781 213.09375 199.300781 213.09375 C 199.300781 213.09375 197.203125 218.785156 197.203125 220.226562 L 195.734375 219.351562 C 195.734375 219.351562 195.800781 215.667969 191.332031 212.128906 C 191.332031 212.128906 193.148438 200.539062 188.644531 191.992188 Z M 188.644531 191.992188 " fill-opacity="1" fill-rule="nonzero"/><path fill="#000072" d="M 197.195312 221.238281 C 197.015625 221.238281 196.84375 221.191406 196.683594 221.097656 L 195.214844 220.222656 C 194.90625 220.035156 194.71875 219.695312 194.726562 219.335938 C 194.726562 219.214844 194.675781 216.070312 190.707031 212.925781 C 190.421875 212.695312 190.28125 212.335938 190.335938 211.976562 C 190.355469 211.863281 192.046875 200.601562 187.757812 192.460938 C 187.535156 192.042969 187.632812 191.53125 187.992188 191.222656 C 188.351562 190.914062 188.875 190.898438 189.25 191.183594 C 189.476562 191.355469 194.832031 195.484375 195.875 203.285156 C 196.789062 210.109375 199.824219 212.230469 199.851562 212.25 C 200.238281 212.511719 200.40625 213.007812 200.242188 213.449219 C 199.398438 215.742188 198.203125 219.363281 198.203125 220.230469 C 198.203125 220.597656 198.007812 220.933594 197.699219 221.113281 C 197.539062 221.195312 197.371094 221.238281 197.195312 221.238281 Z M 192.402344 211.707031 C 195.304688 214.167969 196.265625 216.6875 196.582031 218.132812 C 197.023438 216.511719 197.714844 214.519531 198.109375 213.410156 C 196.972656 212.335938 194.675781 209.488281 193.878906 203.550781 C 193.53125 200.941406 192.625 198.785156 191.632812 197.097656 C 193.230469 203.449219 192.644531 209.777344 192.402344 211.707031 Z M 192.402344 211.707031 " fill-opacity="1" fill-rule="nonzero"/><g clip-path="url(#aad4ffeb5e)"><path fill="#000072" d="M 157.3125 237.5 L 127.671875 237.5 L 130.925781 226.257812 L 147.050781 226.257812 C 147.183594 226.261719 149.648438 226.335938 152.132812 227.609375 C 154.5 228.816406 157.3125 231.335938 157.3125 236.484375 Z M 130.355469 235.480469 L 155.25 235.480469 C 154.605469 228.664062 147.488281 228.296875 147.027344 228.28125 L 132.441406 228.28125 Z M 130.355469 235.480469 " fill-opacity="1" fill-rule="nonzero"/></g><g clip-path="url(#da0efe7f80)"><path fill="#000072" d="M 127.234375 237.546875 C 121.3125 237.546875 115.679688 237.179688 113.539062 234.710938 C 112.800781 233.855469 112.503906 232.78125 112.679688 231.601562 C 113.261719 227.703125 114.222656 226.761719 116.011719 225.296875 C 116.785156 224.664062 117.753906 223.871094 118.941406 222.472656 C 119.394531 221.933594 119.785156 221.5 120.125 221.113281 C 122.394531 218.550781 122.394531 218.550781 126.476562 205.15625 C 129.023438 196.785156 133.648438 193.109375 137.085938 191.496094 C 139.945312 190.15625 142.445312 189.988281 143.542969 189.988281 C 148.296875 183.597656 156.199219 179.800781 164.800781 179.800781 C 178.992188 179.800781 185.90625 186.632812 187.714844 188.746094 C 192.917969 186.949219 224.667969 176.527344 239.144531 184.300781 C 247.332031 188.699219 250.65625 195.417969 252.007812 200.277344 C 253.15625 204.402344 253.113281 207.863281 253.027344 209.246094 C 254.410156 210.152344 256.683594 211.757812 258.566406 214.148438 C 261.34375 217.65625 262.5 221.800781 261.992188 226.476562 C 261.507812 230.941406 258.539062 234.269531 253.414062 236.105469 C 249.675781 237.441406 246.128906 237.507812 245.980469 237.507812 L 133.234375 237.507812 C 132.378906 237.507812 131.464844 237.519531 130.515625 237.53125 C 130.023438 237.535156 129.527344 237.539062 129.019531 237.546875 C 128.429688 237.539062 127.828125 237.546875 127.234375 237.546875 Z M 143.464844 192 C 141.253906 192 132.335938 192.828125 128.402344 205.742188 C 124.273438 219.304688 124.195312 219.5625 121.628906 222.453125 C 121.296875 222.828125 120.914062 223.257812 120.472656 223.777344 C 119.164062 225.324219 118.117188 226.179688 117.277344 226.863281 C 115.820312 228.050781 115.160156 228.59375 114.664062 231.890625 C 114.574219 232.496094 114.695312 232.96875 115.054688 233.378906 C 117 235.621094 124.808594 235.554688 129.003906 235.511719 C 129.511719 235.503906 130.007812 235.5 130.492188 235.496094 C 131.449219 235.484375 132.371094 235.472656 133.234375 235.472656 L 245.964844 235.472656 C 246.082031 235.472656 259.027344 235.152344 259.992188 226.246094 C 260.4375 222.125 259.425781 218.472656 256.988281 215.394531 C 255.054688 212.945312 252.695312 211.425781 251.429688 210.609375 L 250.902344 210.269531 L 250.972656 209.644531 C 250.980469 209.605469 251.417969 205.625 250.046875 200.746094 C 248.222656 194.265625 244.230469 189.332031 238.1875 186.082031 C 223.511719 178.195312 188.0625 190.757812 187.703125 190.882812 L 186.984375 191.144531 L 186.542969 190.515625 C 186.476562 190.433594 180.125 181.816406 164.789062 181.816406 C 156.644531 181.816406 149.1875 185.472656 144.855469 191.59375 L 144.519531 192.066406 L 143.945312 192.011719 C 143.902344 192.011719 143.734375 192 143.464844 192 Z M 143.464844 192 " fill-opacity="1" fill-rule="nonzero"/></g><path fill="#6d3218" d="M 140.75 202.21875 C 139.179688 215.148438 144.195312 233.90625 129.019531 236.527344 C 121.640625 236.597656 112.980469 236.410156 113.675781 231.75 C 114.300781 227.59375 115.308594 227.226562 117.277344 225.558594 C 117.964844 224.980469 118.765625 224.238281 119.710938 223.125 C 123.359375 218.8125 122.714844 220.96875 127.441406 205.453125 C 131.042969 193.621094 138.796875 191.441406 142.289062 191.070312 C 143.375 190.953125 144.046875 191.011719 144.046875 191.011719 C 144.046875 191.011719 141.464844 196.351562 140.75 202.21875 Z M 140.75 202.21875 " fill-opacity="1" fill-rule="nonzero"/><path fill="#ffffff" d="M 142.28125 191.0625 C 140.703125 192.253906 136.183594 193.628906 131.476562 201.546875 C 125.703125 211.242188 128.523438 222.234375 117.273438 225.554688 C 117.960938 224.976562 118.761719 224.234375 119.707031 223.121094 C 123.355469 218.804688 122.710938 220.964844 127.4375 205.445312 C 131.035156 193.621094 138.796875 191.433594 142.28125 191.0625 Z M 142.28125 191.0625 " fill-opacity="0.6" fill-rule="nonzero"/><path fill="#000072" d="M 261.144531 226.359375 C 260.070312 236.273438 246.113281 236.492188 246.113281 236.492188 C 246.113281 236.492188 227.386719 236.492188 205.164062 236.492188 L 133.375 236.492188 C 132.082031 236.492188 130.644531 236.519531 129.15625 236.527344 C 121.777344 236.597656 113.117188 236.410156 113.816406 231.75 C 114.628906 226.289062 116.117188 227.375 119.5625 223.460938 C 119.457031 224.472656 119.453125 225.515625 119.90625 226.410156 C 120.546875 227.671875 121.945312 228.351562 123.292969 228.773438 C 128.578125 230.449219 134.601562 229.585938 139.203125 226.496094 C 138.601562 227.910156 139.152344 231.28125 140.335938 232.257812 C 143.289062 234.699219 153.085938 236.171875 156.570312 235.800781 C 156.421875 233.808594 155.554688 228.378906 156.800781 226.109375 C 156.871094 229.199219 160.011719 231.425781 163.0625 231.859375 C 166.109375 232.289062 169.183594 231.476562 172.253906 231.265625 C 177.667969 230.890625 183.007812 232.382812 188.382812 233.148438 C 193.753906 233.910156 199.628906 233.832031 204.089844 230.730469 C 207.027344 232.289062 211.1875 230.371094 211.914062 227.121094 C 214.925781 227.21875 217.949219 226.941406 220.890625 226.304688 C 218.953125 225.574219 217.011719 224.847656 215.074219 224.117188 C 219.476562 223.796875 223.941406 224.375 228.125 225.800781 C 226.277344 227.890625 223.710938 229.320312 220.964844 229.78125 C 226.277344 230.480469 231.585938 231.179688 236.898438 231.886719 C 235.699219 230.957031 234.503906 230.035156 233.304688 229.109375 C 239.273438 229.972656 245.414062 230.777344 251.285156 229.394531 C 255.039062 228.511719 258.695312 226.535156 261.238281 223.691406 C 261.269531 224.523438 261.242188 225.421875 261.144531 226.359375 Z M 261.144531 226.359375 " fill-opacity="0.2" fill-rule="nonzero"/><path fill="#ffffff" d="M 253.636719 217.464844 C 253.433594 217.789062 253.222656 218.058594 253.007812 218.21875 C 251.210938 219.574219 249.035156 220.402344 246.828125 220.785156 C 243.359375 221.382812 237.898438 221.113281 234.960938 219.871094 C 235.425781 220.578125 236.179688 221.542969 237.027344 222.546875 C 237.917969 223.609375 236.808594 225.167969 235.515625 224.667969 C 235.335938 224.597656 235.171875 224.535156 235.03125 224.472656 C 227.085938 221.117188 221.597656 222.867188 217.589844 224.933594 C 218.25 225.636719 219.136719 225.867188 220.09375 225.972656 C 221.640625 226.152344 221.9375 228.277344 220.484375 228.847656 C 218.082031 229.796875 215.261719 230.324219 213.578125 229.902344 C 214.070312 230.195312 215.480469 230.503906 217.027344 230.792969 C 217.867188 230.953125 217.871094 232.160156 217.03125 232.320312 C 213.398438 233.003906 209.886719 234.222656 207.820312 236.492188 L 205.019531 236.492188 C 207.859375 233.0625 212.164062 230.835938 216.621094 230.730469 C 214 230.652344 211.492188 228.964844 210.433594 226.566406 C 213.476562 227.609375 216.890625 227.570312 219.910156 226.453125 C 218.511719 225.160156 216.671875 224.355469 214.777344 224.207031 C 220.804688 220.109375 229.078125 219.613281 235.550781 222.957031 C 233.394531 221.523438 231.832031 219.210938 231.308594 216.664062 C 236.324219 219.09375 242.058594 219.96875 247.570312 219.25 C 249.671875 218.976562 251.910156 218.65625 253.636719 217.464844 Z M 253.636719 217.464844 " fill-opacity="0.6" fill-rule="nonzero"/><path fill="#000072" d="M 248.789062 194.746094 C 246.957031 195.75 245.152344 196.820312 243.214844 197.570312 C 239.914062 198.847656 236.339844 199.171875 232.816406 199.488281 C 226.910156 200.015625 221.007812 200.535156 215.097656 201.058594 C 206.664062 201.804688 198.167969 202.554688 189.746094 201.667969 C 180.09375 200.660156 170.625 197.519531 160.925781 197.894531 C 154.886719 198.128906 148.960938 199.722656 142.925781 200.082031 C 139.019531 200.316406 134.53125 200.050781 130.867188 198.351562 C 136.34375 190.292969 144.1875 191.003906 144.1875 191.003906 C 148.164062 185.394531 155.492188 180.804688 164.941406 180.804688 C 181.046875 180.804688 187.511719 189.929688 187.511719 189.929688 C 187.511719 189.929688 223.5625 177 238.808594 185.1875 C 243.683594 187.804688 246.796875 191.257812 248.789062 194.746094 Z M 248.789062 194.746094 " fill-opacity="0.2" fill-rule="nonzero"/><g clip-path="url(#2a904a0523)"><path fill="#000072" d="M 127.226562 237.546875 C 121.3125 237.546875 115.679688 237.179688 113.535156 234.710938 C 112.796875 233.855469 112.5 232.78125 112.675781 231.601562 C 113.253906 227.703125 114.214844 226.761719 116.003906 225.296875 C 116.78125 224.664062 117.746094 223.871094 118.9375 222.472656 C 119.390625 221.933594 119.78125 221.5 120.117188 221.113281 C 122.390625 218.550781 122.390625 218.550781 126.46875 205.15625 C 129.019531 196.785156 133.644531 193.109375 137.082031 191.496094 C 140.847656 189.734375 144 189.992188 144.128906 190.003906 L 145.582031 190.136719 L 144.949219 191.449219 C 144.921875 191.503906 142.429688 196.71875 141.75 202.339844 C 141.367188 205.457031 141.378906 209.035156 141.390625 212.488281 C 141.40625 217.957031 141.425781 223.617188 139.960938 228.171875 C 138.238281 233.507812 134.714844 236.566406 129.183594 237.523438 L 129.097656 237.539062 L 129.007812 237.539062 C 128.417969 237.539062 127.820312 237.546875 127.226562 237.546875 Z M 142.488281 192.042969 C 139.320312 192.328125 131.890625 194.265625 128.402344 205.742188 C 124.273438 219.304688 124.195312 219.5625 121.628906 222.453125 C 121.296875 222.828125 120.914062 223.257812 120.472656 223.777344 C 119.164062 225.324219 118.117188 226.179688 117.277344 226.863281 C 115.820312 228.050781 115.160156 228.59375 114.664062 231.890625 C 114.574219 232.496094 114.695312 232.96875 115.054688 233.378906 C 116.988281 235.613281 124.710938 235.554688 128.925781 235.511719 C 139.449219 233.640625 139.414062 223.363281 139.378906 212.488281 C 139.367188 208.96875 139.359375 205.328125 139.75 202.085938 C 140.253906 197.929688 141.652344 194.074219 142.488281 192.042969 Z M 142.488281 192.042969 " fill-opacity="1" fill-rule="nonzero"/></g><g clip-path="url(#9305730330)"><path fill="#000072" d="M 254.484375 217.222656 C 253.726562 217.953125 252.796875 218.492188 251.820312 218.855469 C 250.847656 219.21875 249.839844 219.449219 248.847656 219.632812 C 246.878906 220.003906 244.828125 220.226562 242.796875 220.195312 C 242.285156 220.199219 241.777344 220.164062 241.265625 220.140625 C 240.757812 220.101562 240.246094 220.074219 239.738281 220.003906 C 238.726562 219.898438 237.710938 219.71875 236.714844 219.496094 C 234.714844 219.046875 232.757812 218.386719 230.890625 217.519531 L 232.222656 216.476562 C 232.46875 217.621094 232.953125 218.710938 233.625 219.671875 C 234.296875 220.628906 235.136719 221.46875 236.101562 222.097656 C 236.578125 222.40625 236.707031 223.039062 236.402344 223.519531 C 236.117188 223.957031 235.546875 224.105469 235.089844 223.878906 L 235.070312 223.867188 C 233.542969 223.089844 231.894531 222.53125 230.199219 222.203125 C 228.503906 221.875 226.773438 221.769531 225.046875 221.863281 C 223.324219 221.964844 221.613281 222.289062 219.976562 222.828125 C 218.339844 223.371094 216.773438 224.117188 215.351562 225.082031 L 214.847656 223.15625 C 216.980469 223.335938 219.023438 224.238281 220.589844 225.695312 L 220.59375 225.703125 C 221.011719 226.089844 221.039062 226.738281 220.652344 227.160156 C 220.542969 227.28125 220.398438 227.375 220.253906 227.429688 C 216.996094 228.621094 213.367188 228.652344 210.09375 227.53125 L 211.339844 226.164062 C 211.785156 227.175781 212.554688 228.058594 213.496094 228.691406 C 214.429688 229.320312 215.539062 229.695312 216.640625 229.730469 C 217.195312 229.746094 217.632812 230.210938 217.617188 230.769531 C 217.601562 231.308594 217.164062 231.738281 216.636719 231.75 C 214.570312 231.796875 212.515625 232.339844 210.652344 233.28125 C 208.789062 234.21875 207.117188 235.542969 205.785156 237.148438 L 205.011719 235.488281 L 241.519531 235.488281 L 246.054688 235.484375 C 247.484375 235.421875 248.964844 235.203125 250.378906 234.878906 C 251.796875 234.550781 253.1875 234.097656 254.46875 233.464844 C 255.753906 232.839844 256.925781 232.035156 257.855469 231.027344 C 258.777344 230.019531 259.449219 228.8125 259.765625 227.480469 C 259.800781 227.3125 259.855469 227.152344 259.882812 226.984375 L 259.960938 226.476562 C 259.992188 226.3125 260.007812 226.128906 260.019531 225.945312 L 260.066406 225.40625 C 260.097656 224.683594 260.113281 223.964844 260.054688 223.246094 C 259.960938 221.816406 259.648438 220.417969 259.132812 219.09375 C 258.621094 217.769531 257.878906 216.53125 257 215.402344 L 256.992188 215.398438 C 256.648438 214.960938 256.722656 214.324219 257.164062 213.980469 C 257.601562 213.632812 258.234375 213.707031 258.578125 214.148438 C 259.574219 215.421875 260.417969 216.828125 261.011719 218.355469 C 261.609375 219.878906 261.960938 221.488281 262.074219 223.105469 C 262.140625 223.914062 262.125 224.722656 262.089844 225.527344 L 262.039062 226.125 C 262.023438 226.328125 262.007812 226.523438 261.972656 226.734375 L 261.878906 227.355469 C 261.84375 227.5625 261.78125 227.769531 261.734375 227.96875 C 261.34375 229.613281 260.488281 231.160156 259.347656 232.390625 C 258.207031 233.628906 256.820312 234.566406 255.367188 235.277344 C 253.910156 235.988281 252.390625 236.484375 250.847656 236.839844 C 249.300781 237.191406 247.753906 237.417969 246.144531 237.492188 L 241.550781 237.5 L 205.019531 237.5 C 204.464844 237.5 204.011719 237.046875 204.011719 236.484375 C 204.011719 236.242188 204.101562 236.015625 204.246094 235.839844 C 205.757812 234.015625 207.644531 232.523438 209.757812 231.457031 C 211.863281 230.398438 214.207031 229.769531 216.59375 229.714844 L 216.589844 231.730469 C 215.074219 231.683594 213.617188 231.179688 212.378906 230.347656 C 211.148438 229.523438 210.125 228.355469 209.507812 226.96875 C 209.28125 226.460938 209.507812 225.859375 210.015625 225.632812 C 210.257812 225.527344 210.515625 225.515625 210.75 225.59375 L 210.753906 225.59375 C 213.578125 226.558594 216.757812 226.511719 219.554688 225.472656 L 219.210938 227.199219 C 217.980469 226.070312 216.351562 225.367188 214.691406 225.246094 C 214.117188 225.203125 213.683594 224.699219 213.726562 224.121094 C 213.753906 223.792969 213.925781 223.507812 214.175781 223.332031 L 214.1875 223.320312 C 215.769531 222.234375 217.507812 221.382812 219.324219 220.785156 C 221.140625 220.183594 223.03125 219.824219 224.929688 219.707031 C 226.835938 219.585938 228.753906 219.722656 230.625 220.117188 C 232.496094 220.503906 234.316406 221.144531 236.015625 222.035156 L 234.988281 223.804688 C 233.792969 223.003906 232.777344 221.964844 231.996094 220.777344 C 231.210938 219.589844 230.652344 218.25 230.382812 216.847656 L 230.382812 216.835938 C 230.285156 216.320312 230.617188 215.828125 231.128906 215.726562 C 231.335938 215.683594 231.539062 215.71875 231.714844 215.800781 C 232.582031 216.21875 233.457031 216.613281 234.359375 216.957031 C 235.261719 217.285156 236.179688 217.597656 237.117188 217.832031 C 238.050781 218.070312 238.996094 218.28125 239.957031 218.425781 C 240.429688 218.511719 240.917969 218.558594 241.398438 218.621094 C 241.878906 218.664062 242.363281 218.714844 242.847656 218.738281 C 243.820312 218.800781 244.792969 218.804688 245.761719 218.769531 L 246.492188 218.730469 L 247.222656 218.667969 C 247.707031 218.632812 248.203125 218.578125 248.6875 218.527344 C 249.660156 218.414062 250.621094 218.261719 251.527344 217.984375 C 252.4375 217.710938 253.304688 217.300781 254.035156 216.707031 L 254.042969 216.703125 C 254.183594 216.585938 254.394531 216.605469 254.511719 216.75 C 254.628906 216.902344 254.613281 217.101562 254.484375 217.222656 Z M 254.484375 217.222656 " fill-opacity="1" fill-rule="nonzero"/></g><path fill="#000072" d="M 157.660156 224.953125 C 157.449219 226.070312 157.261719 227.101562 157.21875 228.085938 C 157.171875 229.0625 157.253906 230 157.640625 230.824219 C 157.832031 231.238281 158.074219 231.632812 158.375 231.988281 C 158.671875 232.347656 159.035156 232.691406 159.363281 232.925781 C 159.710938 233.179688 160.136719 233.371094 160.585938 233.539062 C 161.042969 233.691406 161.523438 233.824219 162.019531 233.921875 C 163.011719 234.113281 164.0625 234.1875 165.117188 234.203125 C 166.171875 234.21875 167.246094 234.164062 168.316406 234.0625 C 169.386719 233.96875 170.460938 233.820312 171.519531 233.640625 C 172.582031 233.460938 173.660156 233.238281 174.679688 232.984375 C 174.832031 232.945312 174.988281 232.945312 175.136719 232.984375 C 175.992188 233.191406 176.90625 233.363281 177.796875 233.507812 C 178.695312 233.652344 179.597656 233.757812 180.496094 233.816406 C 181.394531 233.875 182.292969 233.894531 183.167969 233.824219 C 184.039062 233.757812 184.894531 233.597656 185.640625 233.3125 C 186.015625 233.171875 186.347656 232.992188 186.632812 232.792969 L 186.742188 232.71875 L 186.847656 232.621094 L 187.0625 232.425781 C 187.222656 232.308594 187.339844 232.15625 187.476562 232.011719 C 187.613281 231.875 187.722656 231.714844 187.839844 231.558594 C 187.96875 231.410156 188.058594 231.230469 188.15625 231.058594 C 188.269531 230.894531 188.34375 230.710938 188.433594 230.523438 C 188.527344 230.34375 188.578125 230.148438 188.648438 229.953125 C 188.773438 229.566406 188.871094 229.152344 188.929688 228.734375 L 188.992188 228.097656 C 188.984375 227.882812 189.007812 227.667969 188.984375 227.457031 C 188.945312 226.601562 188.789062 225.707031 188.277344 224.980469 L 188.269531 224.96875 C 188.21875 224.90625 188.238281 224.816406 188.300781 224.769531 C 188.347656 224.738281 188.40625 224.730469 188.453125 224.757812 C 188.902344 225.011719 189.238281 225.425781 189.507812 225.855469 L 189.699219 226.1875 C 189.761719 226.300781 189.804688 226.421875 189.851562 226.539062 C 189.964844 226.773438 190.03125 227.015625 190.109375 227.257812 C 190.390625 228.246094 190.445312 229.300781 190.265625 230.339844 C 190.207031 230.597656 190.167969 230.859375 190.078125 231.113281 C 190 231.367188 189.925781 231.625 189.804688 231.871094 C 189.695312 232.113281 189.582031 232.363281 189.429688 232.589844 C 189.289062 232.824219 189.148438 233.0625 188.964844 233.265625 C 188.789062 233.46875 188.621094 233.691406 188.414062 233.867188 L 188.113281 234.144531 L 187.960938 234.28125 L 187.789062 234.410156 C 187.316406 234.753906 186.804688 234.992188 186.300781 235.160156 C 185.28125 235.5 184.273438 235.628906 183.289062 235.679688 C 182.300781 235.738281 181.332031 235.71875 180.371094 235.652344 C 179.410156 235.585938 178.453125 235.472656 177.507812 235.324219 C 176.558594 235.175781 175.640625 235.003906 174.679688 234.769531 L 175.136719 234.769531 C 172.929688 235.304688 170.746094 235.6875 168.5 235.949219 C 167.382812 236.078125 166.253906 236.167969 165.113281 236.179688 C 163.972656 236.1875 162.808594 236.148438 161.636719 235.941406 C 161.050781 235.835938 160.460938 235.695312 159.878906 235.484375 C 159.296875 235.261719 158.710938 235.003906 158.164062 234.605469 C 158.027344 234.515625 157.898438 234.390625 157.769531 234.285156 C 157.703125 234.234375 157.636719 234.175781 157.578125 234.121094 L 157.414062 233.953125 C 157.191406 233.734375 156.984375 233.492188 156.789062 233.242188 C 156.398438 232.746094 156.0625 232.175781 155.828125 231.574219 C 155.359375 230.363281 155.242188 229.011719 155.546875 227.808594 C 155.691406 227.207031 155.929688 226.640625 156.242188 226.128906 C 156.558594 225.617188 156.933594 225.15625 157.417969 224.785156 C 157.484375 224.738281 157.578125 224.746094 157.628906 224.816406 C 157.65625 224.851562 157.667969 224.894531 157.65625 224.933594 Z M 157.660156 224.953125 " fill-opacity="1" fill-rule="nonzero"/><path fill="#000072" d="M 169.652344 224.488281 C 170.511719 222.425781 178.527344 222.570312 180.003906 224.488281 C 181.484375 226.40625 176.234375 229.804688 174.730469 229.804688 C 173.230469 229.804688 168.914062 226.253906 169.652344 224.488281 Z M 169.652344 224.488281 " fill-opacity="1" fill-rule="nonzero"/><path fill="#ffffff" d="M 176.835938 224.253906 C 176.835938 224.296875 176.792969 224.335938 176.707031 224.371094 C 176.621094 224.410156 176.496094 224.441406 176.335938 224.472656 C 176.175781 224.5 175.988281 224.523438 175.777344 224.539062 C 175.566406 224.554688 175.347656 224.5625 175.121094 224.5625 C 174.894531 224.5625 174.675781 224.554688 174.464844 224.539062 C 174.253906 224.523438 174.070312 224.5 173.910156 224.472656 C 173.746094 224.441406 173.625 224.410156 173.535156 224.371094 C 173.449219 224.335938 173.40625 224.296875 173.40625 224.253906 C 173.40625 224.214844 173.449219 224.175781 173.535156 224.136719 C 173.625 224.097656 173.746094 224.066406 173.910156 224.039062 C 174.070312 224.007812 174.253906 223.984375 174.464844 223.96875 C 174.675781 223.953125 174.894531 223.945312 175.121094 223.945312 C 175.347656 223.945312 175.566406 223.953125 175.777344 223.96875 C 175.988281 223.984375 176.175781 224.007812 176.335938 224.039062 C 176.496094 224.066406 176.621094 224.097656 176.707031 224.136719 C 176.792969 224.175781 176.835938 224.214844 176.835938 224.253906 Z M 176.835938 224.253906 " fill-opacity="1" fill-rule="nonzero"/><path fill="#000072" d="M 174.914062 234.671875 C 174.476562 234.671875 174.125 234.320312 174.125 233.878906 L 174.125 228.011719 C 174.125 227.570312 174.476562 227.21875 174.914062 227.21875 C 175.355469 227.21875 175.707031 227.570312 175.707031 228.011719 L 175.707031 233.878906 C 175.707031 234.320312 175.355469 234.671875 174.914062 234.671875 Z M 174.914062 234.671875 " fill-opacity="1" fill-rule="nonzero"/><path fill="#000072" d="M 152.628906 217.109375 C 153.714844 217.355469 154.695312 217.585938 155.660156 217.757812 C 156.621094 217.933594 157.554688 218.046875 158.480469 218.070312 C 158.710938 218.074219 158.941406 218.085938 159.171875 218.070312 C 159.40625 218.074219 159.632812 218.046875 159.863281 218.039062 C 160.324219 218 160.789062 217.941406 161.257812 217.859375 C 162.199219 217.695312 163.148438 217.402344 164.230469 217.101562 C 163.671875 218.074219 162.792969 218.832031 161.773438 219.359375 C 161.261719 219.617188 160.714844 219.796875 160.148438 219.929688 C 159.863281 219.984375 159.578125 220.03125 159.292969 220.058594 C 159.152344 220.074219 159.003906 220.078125 158.859375 220.078125 C 158.71875 220.078125 158.570312 220.089844 158.425781 220.082031 C 157.269531 220.050781 156.148438 219.75 155.148438 219.246094 C 154.648438 218.992188 154.183594 218.691406 153.75 218.335938 C 153.328125 217.992188 152.929688 217.59375 152.628906 217.109375 Z M 152.628906 217.109375 " fill-opacity="1" fill-rule="nonzero"/><path fill="#000072" d="M 179.929688 216.570312 C 180.875 216.71875 181.707031 216.878906 182.511719 216.992188 C 183.316406 217.117188 184.085938 217.195312 184.839844 217.214844 C 185.222656 217.222656 185.597656 217.226562 185.972656 217.199219 C 186.351562 217.175781 186.726562 217.136719 187.121094 217.085938 C 187.910156 216.972656 188.710938 216.773438 189.65625 216.570312 C 189.230469 217.4375 188.5 218.117188 187.640625 218.582031 C 187.207031 218.816406 186.738281 218.980469 186.257812 219.097656 C 185.769531 219.199219 185.273438 219.25 184.785156 219.234375 C 183.796875 219.210938 182.839844 218.9375 181.996094 218.488281 C 181.171875 218.03125 180.410156 217.417969 179.929688 216.570312 Z M 179.929688 216.570312 " fill-opacity="1" fill-rule="nonzero"/><path fill="#000072" d="M 196.867188 221.128906 L 194.855469 221.089844 C 194.941406 216.226562 190.761719 212.964844 190.71875 212.929688 L 190.28125 212.589844 L 190.328125 212.035156 C 191.695312 196.753906 186.664062 190.644531 186.609375 190.585938 L 188.132812 189.261719 C 188.359375 189.527344 193.667969 195.832031 192.382812 211.6875 C 193.609375 212.78125 196.953125 216.203125 196.867188 221.128906 Z M 196.867188 221.128906 " fill-opacity="1" fill-rule="nonzero"/><path fill="#000072" d="M 196.863281 221.652344 C 196.640625 220.933594 196.597656 220.230469 196.605469 219.527344 C 196.609375 218.828125 196.714844 218.140625 196.835938 217.449219 C 197.085938 216.082031 197.527344 214.753906 198.046875 213.464844 C 198.570312 212.175781 199.125 210.898438 199.789062 209.671875 C 200.449219 208.441406 201.199219 207.257812 202.039062 206.136719 C 202.886719 205.023438 203.832031 203.976562 204.851562 203.015625 C 205.886719 202.066406 207 201.203125 208.183594 200.445312 C 210.558594 198.945312 213.203125 197.90625 215.914062 197.28125 C 216.59375 197.136719 217.28125 197.015625 217.960938 196.894531 C 218.648438 196.808594 219.328125 196.703125 220.015625 196.644531 C 220.699219 196.597656 221.386719 196.515625 222.085938 196.511719 L 223.117188 196.484375 L 224.160156 196.507812 L 224.675781 196.515625 L 226.234375 196.632812 C 226.925781 196.722656 227.617188 196.785156 228.296875 196.925781 C 228.984375 197.03125 229.660156 197.199219 230.339844 197.359375 C 231.011719 197.550781 231.6875 197.726562 232.34375 197.964844 C 233.664062 198.417969 234.949219 198.976562 236.175781 199.636719 C 237.40625 200.304688 238.578125 201.074219 239.679688 201.925781 L 240.496094 202.589844 C 240.757812 202.824219 241.023438 203.046875 241.28125 203.285156 C 241.792969 203.761719 242.328125 204.21875 242.816406 204.71875 C 243.304688 205.222656 243.746094 205.773438 244.105469 206.394531 C 244.453125 207.015625 244.730469 207.6875 244.761719 208.5 C 244.769531 208.707031 244.605469 208.878906 244.402344 208.890625 C 244.332031 208.894531 244.265625 208.875 244.207031 208.847656 L 244.167969 208.828125 C 243.523438 208.472656 243.019531 208.042969 242.554688 207.597656 C 242.089844 207.148438 241.65625 206.675781 241.238281 206.1875 C 240.820312 205.699219 240.394531 205.21875 239.925781 204.777344 C 239.691406 204.554688 239.445312 204.347656 239.199219 204.136719 L 238.453125 203.527344 C 237.433594 202.738281 236.355469 202.035156 235.21875 201.417969 C 234.085938 200.808594 232.902344 200.296875 231.6875 199.875 C 226.816406 198.191406 221.417969 198.160156 216.355469 199.25 C 213.84375 199.835938 211.425781 200.78125 209.253906 202.148438 C 208.179688 202.839844 207.164062 203.628906 206.214844 204.492188 C 205.285156 205.378906 204.417969 206.332031 203.636719 207.355469 C 202.867188 208.386719 202.175781 209.480469 201.558594 210.625 C 200.9375 211.761719 200.402344 212.949219 199.988281 214.183594 C 199.578125 215.421875 199.234375 216.675781 198.871094 217.925781 C 198.519531 219.183594 198.15625 220.433594 197.527344 221.683594 L 197.519531 221.699219 C 197.429688 221.875 197.210938 221.949219 197.039062 221.859375 C 196.953125 221.820312 196.890625 221.742188 196.863281 221.652344 Z M 196.863281 221.652344 " fill-opacity="1" fill-rule="nonzero"/><path fill="#c6683e" d="M 204.382812 236.484375 C 204.382812 236.519531 204.382812 236.535156 204.382812 236.535156 L 178.257812 236.535156 L 178.257812 236.484375 C 178.269531 234.410156 178.800781 232.839844 179.59375 231.65625 C 181.886719 228.21875 186.347656 228.007812 186.347656 228.007812 L 192.71875 228.007812 C 195.65625 226.789062 195.867188 221.113281 195.867188 221.113281 C 200.933594 222.898438 203.007812 227.253906 203.847656 230.882812 C 204.507812 233.730469 204.402344 236.125 204.382812 236.484375 Z M 204.382812 236.484375 " fill-opacity="1" fill-rule="nonzero"/><path fill="#ffffff" d="M 194.835938 228.179688 C 195.03125 228.304688 196.214844 228.1875 196.414062 228.308594 C 193.886719 229.746094 188.96875 229.375 186.097656 229.804688 C 182.503906 230.339844 180.265625 232.203125 178.179688 235.234375 C 178.347656 232.25 180.445312 229.464844 183.257812 228.484375 C 185.589844 227.671875 188.140625 228.042969 190.605469 227.992188 C 191.367188 227.976562 192.148438 227.910156 192.839844 227.582031 C 193.929688 227.0625 194.613281 225.972656 195.195312 224.910156 C 195.839844 223.742188 196.445312 222.449219 196.296875 221.117188 C 196.304688 221.1875 199.042969 222.394531 199.339844 222.597656 C 199.976562 223.035156 201.125 223.761719 201.339844 224.507812 C 199.550781 223.714844 198.820312 223.496094 197.476562 223.523438 C 197.167969 225.296875 196.070312 226.824219 194.835938 228.179688 Z M 194.835938 228.179688 " fill-opacity="0.6" fill-rule="nonzero"/><path fill="#000072" d="M 204.382812 236.484375 L 178.253906 236.484375 C 178.261719 234.410156 178.796875 232.839844 179.589844 231.65625 C 182.523438 232.085938 185.445312 232.722656 188.378906 233.140625 C 193.652344 233.894531 199.414062 233.824219 203.84375 230.890625 C 204.507812 233.730469 204.402344 236.125 204.382812 236.484375 Z M 204.382812 236.484375 " fill-opacity="0.2" fill-rule="nonzero"/><g clip-path="url(#bc2b68b58b)"><path fill="#000072" d="M 205.320312 237.546875 L 177.25 237.546875 L 177.25 236.535156 C 177.25 229.332031 183.167969 227.148438 186.300781 227 L 192.492188 227 C 194.269531 226.054688 194.808594 222.339844 194.855469 221.074219 L 194.910156 219.707031 L 196.199219 220.164062 C 200.359375 221.632812 203.261719 224.960938 204.609375 229.796875 C 205.601562 233.371094 205.394531 236.480469 205.386719 236.613281 Z M 179.3125 235.527344 L 203.390625 235.527344 C 203.347656 232.910156 202.6875 225.519531 196.730469 222.574219 C 196.453125 224.546875 195.613281 227.894531 193.097656 228.945312 L 192.914062 229.023438 L 186.371094 229.023438 C 185.90625 229.050781 179.921875 229.539062 179.3125 235.527344 Z M 179.3125 235.527344 " fill-opacity="1" fill-rule="nonzero"/></g><path fill="#000072" d="M 192.796875 227 L 199.300781 228.546875 L 192.632812 229.011719 C 192.074219 229.050781 191.589844 228.625 191.546875 228.066406 C 191.503906 227.503906 191.933594 227.015625 192.492188 226.972656 C 192.59375 226.96875 192.699219 226.976562 192.796875 227 Z M 192.796875 227 " fill-opacity="1" fill-rule="nonzero"/><path fill="#ffffff" d="M 249.738281 183.957031 C 249.808594 190.113281 243.335938 197.601562 220.789062 197.59375 L 219.882812 197.585938 L 191.257812 197.402344 C 190.996094 197.453125 190.761719 197.488281 190.542969 197.492188 C 190.136719 197.503906 189.488281 197.464844 188.648438 197.386719 C 182.375 196.78125 165.777344 193.867188 165.777344 193.867188 C 149.457031 193.9375 136.570312 199.675781 132.136719 194.644531 C 130.101562 192.339844 130.191406 189.554688 131.070312 187.007812 C 132.453125 182.988281 135.792969 179.5625 135.792969 179.5625 C 135.71875 178.03125 135.058594 170.378906 138.449219 163.53125 C 138.449219 163.53125 138.597656 150.171875 144.039062 145.859375 C 149.480469 141.542969 152.625 153.042969 152.625 153.042969 C 152.625 153.042969 156.605469 150.976562 162.285156 150.6875 C 162.726562 150.660156 163.167969 150.648438 163.628906 150.648438 C 164.183594 150.648438 164.753906 150.664062 165.332031 150.707031 C 171.140625 145.523438 182.34375 138.832031 200.441406 138.835938 C 214.023438 138.839844 224.449219 144.214844 231.742188 151.167969 C 236.609375 155.8125 240.078125 161.15625 242.15625 166.074219 C 243.023438 168.117188 243.644531 170.085938 244.03125 171.898438 C 244.453125 173.871094 244.589844 175.664062 244.449219 177.171875 C 244.449219 177.171875 244.617188 177.210938 244.902344 177.304688 C 246.113281 177.714844 249.355469 179.1875 249.722656 183.257812 C 249.730469 183.488281 249.738281 183.722656 249.738281 183.957031 Z M 249.738281 183.957031 " fill-opacity="1" fill-rule="nonzero"/><path fill="#ffffff" d="M 241.449219 183.246094 C 241.449219 183.246094 238.265625 186.71875 230.664062 186.75 C 221.429688 186.78125 213.917969 180.273438 203.378906 179.59375 C 198.710938 179.292969 196.800781 181.597656 195.101562 184.480469 C 195.09375 182.839844 195.65625 181.289062 196.699219 180.019531 C 203.160156 172.1875 220.410156 184.066406 228.738281 184.734375 C 234.121094 185.171875 238.808594 184.585938 241.449219 183.246094 Z M 241.449219 183.246094 " fill-opacity="0.6" fill-rule="nonzero"/><path fill="#000072" d="M 208.785156 178.3125 C 208.828125 178.328125 208.875 178.34375 208.917969 178.367188 C 207.972656 178.175781 207.015625 178.015625 206.054688 177.898438 C 203.511719 177.59375 200.8125 177.609375 198.511719 178.753906 C 196.207031 179.890625 194.429688 182.410156 194.824219 184.953125 C 192.449219 183.25 190.304688 181.238281 188.457031 178.980469 C 188.121094 178.566406 187.789062 178.136719 187.613281 177.632812 C 187.359375 176.890625 187.472656 176.085938 187.542969 175.300781 C 187.828125 172.339844 187.3125 169.5625 186.566406 166.71875 C 188.636719 172.855469 195.859375 173.875 199.597656 170.574219 C 201.4375 174.246094 204.972656 176.828125 208.785156 178.3125 Z M 208.785156 178.3125 " fill-opacity="0.2" fill-rule="nonzero"/><path fill="#000072" d="M 187.460938 176.46875 C 187.4375 176.707031 187.40625 176.941406 187.371094 177.167969 C 186.664062 181.457031 185.078125 186.792969 181.835938 188.164062 C 164.816406 195.371094 138.609375 184.972656 138.609375 184.972656 C 138.609375 184.972656 135.984375 182.960938 135.816406 179.59375 C 135.765625 178.636719 135.488281 175.277344 136.121094 171.214844 C 135.714844 182.292969 155.3125 185.3125 167.105469 185.3125 C 175.792969 185.3125 183.871094 183.25 187.460938 176.46875 Z M 187.460938 176.46875 " fill-opacity="0.2" fill-rule="nonzero"/><path fill="#ffffff" d="M 185.925781 166.578125 C 185.925781 166.578125 186.363281 153.976562 183.285156 152.640625 C 181.039062 151.667969 179.097656 154.304688 178.210938 155.8125 C 177.902344 156.328125 177.25 156.511719 176.722656 156.230469 C 165.59375 150.355469 155.460938 153.925781 152.394531 155.273438 C 151.882812 155.496094 151.289062 155.25 151.089844 154.730469 C 150.296875 152.679688 148.296875 148.175781 146 148.101562 C 143.882812 148.03125 141.390625 151.773438 139.390625 155.457031 C 140.144531 151.808594 141.527344 147.882812 144.046875 145.890625 C 149.484375 141.574219 152.636719 153.074219 152.636719 153.074219 C 152.636719 153.074219 164.519531 146.898438 176.542969 154.367188 C 176.542969 154.367188 180.121094 148.765625 183.84375 149.484375 C 187.5625 150.199219 186.574219 160.398438 185.925781 166.578125 Z M 185.925781 166.578125 " fill-opacity="0.6" fill-rule="nonzero"/><path fill="#ffa300" d="M 152.28125 151.972656 L 150.253906 146.515625 L 147.445312 144.457031 L 145.425781 145.101562 L 143.355469 146.515625 L 140.671875 149.980469 L 139.390625 155.457031 L 140.144531 157.136719 L 144.234375 157.136719 Z M 152.28125 151.972656 " fill-opacity="1" fill-rule="nonzero"/><path fill="#ffa300" d="M 239.324219 176.800781 C 241.578125 176.019531 243.097656 173.78125 243.742188 170.777344 C 243.355469 169.289062 242.824219 167.707031 242.136719 166.085938 C 240.054688 161.164062 236.585938 155.816406 231.71875 151.179688 C 230.785156 150.289062 229.796875 149.417969 228.757812 148.585938 C 224.722656 150.71875 223.492188 157.984375 226.054688 165.429688 C 228.773438 173.308594 234.714844 178.402344 239.324219 176.800781 Z M 239.324219 176.800781 " fill-opacity="1" fill-rule="nonzero"/><path fill="#ffffff" d="M 244.433594 177.179688 C 243.113281 177.75 244.660156 178.609375 244.433594 177.179688 C 242 161.898438 226.75 143.75 204.402344 141.554688 C 181.691406 139.328125 168.261719 151.148438 168.261719 151.148438 C 165.511719 150.277344 162.269531 150.691406 162.269531 150.691406 C 162.710938 150.664062 163.152344 150.652344 163.613281 150.652344 C 164.167969 150.652344 164.738281 150.671875 165.316406 150.710938 C 171.125 145.53125 182.328125 138.835938 200.425781 138.839844 C 214.007812 138.847656 224.433594 144.21875 231.726562 151.171875 C 236.59375 155.816406 240.0625 161.164062 242.140625 166.082031 C 243.007812 168.121094 243.628906 170.09375 244.015625 171.90625 C 244.4375 173.882812 244.574219 175.671875 244.433594 177.179688 Z M 244.433594 177.179688 " fill-opacity="0.6" fill-rule="nonzero"/><path fill="#000072" d="M 244.886719 177.316406 C 244.601562 177.789062 244.339844 178.269531 244.136719 178.777344 C 243.757812 179.738281 243.578125 180.804688 242.992188 181.65625 C 242.183594 182.832031 240.730469 183.335938 239.363281 183.746094 C 233.386719 185.53125 227.960938 184.75 222.5 183.113281 C 220 182.363281 217.550781 180.75 215.050781 179.976562 C 216.941406 180.304688 218.863281 180.523438 220.769531 180.722656 C 225.722656 181.25 231.117188 181.585938 235.300781 178.863281 C 238.15625 177.003906 240.039062 173.910156 241.089844 170.660156 C 241.570312 169.164062 241.902344 167.632812 242.140625 166.082031 C 243.007812 168.121094 243.628906 170.09375 244.015625 171.90625 C 244.4375 173.875 244.574219 175.667969 244.433594 177.179688 C 244.433594 177.179688 244.605469 177.214844 244.886719 177.316406 Z M 244.886719 177.316406 " fill-opacity="0.2" fill-rule="nonzero"/><path fill="#ffa300" d="M 138.433594 163.539062 C 137.207031 166.015625 136.511719 168.597656 136.125 170.960938 C 138.34375 176.277344 143.582031 180.019531 149.683594 180.019531 C 157.800781 180.019531 164.378906 173.414062 164.378906 165.269531 C 164.378906 159.304688 160.84375 154.167969 155.765625 151.839844 C 153.78125 152.445312 152.609375 153.054688 152.609375 153.054688 C 152.609375 153.054688 152.324219 152.011719 151.773438 150.671875 C 151.09375 150.574219 150.390625 150.515625 149.683594 150.515625 C 145.75 150.515625 142.1875 152.070312 139.546875 154.589844 C 138.488281 159.148438 138.433594 163.539062 138.433594 163.539062 Z M 138.433594 163.539062 " fill-opacity="1" fill-rule="nonzero"/><path fill="#000072" d="M 167.492188 191.730469 C 163.273438 191.730469 158.65625 191.242188 153.644531 190.261719 C 144.976562 188.566406 138.503906 186.023438 138.234375 185.914062 C 138.148438 185.878906 138.0625 185.832031 137.988281 185.773438 C 137.867188 185.679688 134.992188 183.433594 134.800781 179.644531 L 134.785156 179.347656 C 134.425781 173.125 135.324219 167.734375 137.457031 163.320312 C 137.484375 162.410156 137.621094 158.996094 138.402344 155.25 C 139.421875 150.347656 141.105469 146.929688 143.417969 145.101562 C 145.175781 143.707031 146.707031 143.796875 147.683594 144.113281 C 150.6875 145.105469 152.519531 149.523438 153.253906 151.683594 C 156.453125 150.351562 166.15625 147.226562 176.257812 153.023438 C 177.496094 151.375 180.605469 147.828125 184.027344 148.492188 C 188.347656 149.328125 187.855469 157.804688 186.949219 166.472656 C 187.332031 167.65625 189.035156 173.257812 188.363281 177.335938 C 187.625 181.832031 185.957031 187.523438 182.226562 189.101562 C 178.078125 190.851562 173.148438 191.730469 167.492188 191.730469 Z M 139.113281 184.089844 C 141.214844 184.890625 165.640625 193.925781 181.441406 187.230469 C 183.660156 186.292969 185.460938 182.5625 186.371094 177.003906 C 187.027344 173.023438 184.988281 166.972656 184.96875 166.90625 C 184.921875 166.769531 184.90625 166.621094 184.921875 166.472656 C 185.273438 163.109375 185.644531 159.25 185.511719 156.023438 C 185.378906 152.699219 184.699219 150.675781 183.644531 150.46875 C 181.15625 149.988281 178.277344 153.511719 177.382812 154.910156 C 177.085938 155.371094 176.472656 155.515625 176.003906 155.222656 C 164.605469 148.136719 153.210938 153.914062 153.09375 153.972656 C 152.824219 154.109375 152.507812 154.121094 152.230469 154 C 151.949219 153.875 151.742188 153.632812 151.660156 153.339844 C 151.171875 151.570312 149.394531 146.800781 147.050781 146.03125 C 146.304688 145.789062 145.523438 146 144.664062 146.683594 C 142.761719 148.195312 141.28125 151.296875 140.371094 155.664062 C 139.515625 159.753906 139.464844 163.539062 139.464844 163.574219 C 139.464844 163.726562 139.425781 163.875 139.359375 164.015625 C 137.308594 168.148438 136.449219 173.265625 136.796875 179.230469 C 136.800781 179.351562 136.808594 179.457031 136.8125 179.546875 C 136.941406 182.066406 138.683594 183.710938 139.113281 184.089844 Z M 187.371094 177.167969 Z M 187.371094 177.167969 " fill-opacity="1" fill-rule="nonzero"/><path fill="#fc68ab" d="M 173.089844 181.222656 C 173.089844 181.457031 173.042969 181.679688 172.957031 181.894531 C 172.867188 182.109375 172.738281 182.300781 172.574219 182.464844 C 172.410156 182.632812 172.222656 182.757812 172.007812 182.847656 C 171.792969 182.9375 171.570312 182.980469 171.335938 182.980469 C 171.105469 182.980469 170.878906 182.9375 170.664062 182.847656 C 170.449219 182.757812 170.261719 182.632812 170.097656 182.464844 C 169.933594 182.300781 169.804688 182.109375 169.71875 181.894531 C 169.628906 181.679688 169.582031 181.457031 169.582031 181.222656 C 169.582031 180.988281 169.628906 180.765625 169.71875 180.546875 C 169.804688 180.332031 169.933594 180.144531 170.097656 179.976562 C 170.261719 179.8125 170.449219 179.6875 170.664062 179.597656 C 170.878906 179.507812 171.105469 179.460938 171.335938 179.460938 C 171.570312 179.460938 171.792969 179.507812 172.007812 179.597656 C 172.222656 179.6875 172.410156 179.8125 172.574219 179.976562 C 172.738281 180.144531 172.867188 180.332031 172.957031 180.546875 C 173.042969 180.765625 173.089844 180.988281 173.089844 181.222656 Z M 173.089844 181.222656 " fill-opacity="1" fill-rule="nonzero"/><path fill="#000072" d="M 150.222656 172.589844 C 151.164062 172.695312 151.980469 172.820312 152.785156 172.917969 C 153.582031 173.011719 154.339844 173.085938 155.089844 173.109375 C 155.839844 173.128906 156.578125 173.097656 157.351562 173.007812 C 158.125 172.921875 158.925781 172.746094 159.863281 172.589844 C 159.421875 173.4375 158.6875 174.082031 157.832031 174.523438 C 156.976562 174.957031 155.992188 175.160156 155.03125 175.128906 C 154.070312 175.101562 153.132812 174.847656 152.296875 174.429688 C 151.480469 173.992188 150.71875 173.414062 150.222656 172.589844 Z M 150.222656 172.589844 " fill-opacity="1" fill-rule="nonzero"/><path fill="#000072" d="M 175.226562 172.589844 C 175.910156 172.488281 176.464844 172.488281 176.996094 172.5 C 177.519531 172.515625 178.003906 172.550781 178.453125 172.582031 C 178.914062 172.621094 179.328125 172.65625 179.785156 172.679688 C 180.011719 172.691406 180.25 172.683594 180.519531 172.671875 C 180.785156 172.664062 181.070312 172.621094 181.425781 172.589844 C 181.332031 173.285156 180.851562 173.855469 180.242188 174.199219 C 179.636719 174.539062 178.933594 174.660156 178.285156 174.597656 C 177.628906 174.542969 177.027344 174.328125 176.5 174.003906 C 175.984375 173.664062 175.511719 173.234375 175.226562 172.589844 Z M 175.226562 172.589844 " fill-opacity="1" fill-rule="nonzero"/><path fill="#000072" d="M 168.035156 174.839844 C 168.332031 173.859375 173.125 173.613281 173.628906 174.554688 C 174.082031 175.414062 171.410156 177.140625 171.410156 177.140625 C 171.410156 177.140625 167.578125 176.367188 168.035156 174.839844 Z M 168.035156 174.839844 " fill-opacity="1" fill-rule="nonzero"/><path fill="#000072" d="M 171.496094 180.105469 C 171.164062 180.105469 170.882812 179.839844 170.867188 179.5 L 170.707031 176.113281 C 170.691406 175.761719 170.960938 175.464844 171.304688 175.449219 C 171.644531 175.433594 171.949219 175.707031 171.964844 176.050781 L 172.121094 179.4375 C 172.140625 179.785156 171.871094 180.082031 171.527344 180.097656 C 171.515625 180.105469 171.503906 180.105469 171.496094 180.105469 Z M 171.496094 180.105469 " fill-opacity="1" fill-rule="nonzero"/><path fill="#000072" d="M 171.335938 183.617188 C 170.023438 183.617188 168.957031 182.546875 168.957031 181.226562 C 168.957031 179.90625 170.023438 178.835938 171.335938 178.835938 C 172.652344 178.835938 173.71875 179.90625 173.71875 181.226562 C 173.71875 182.542969 172.652344 183.617188 171.335938 183.617188 Z M 171.335938 180.09375 C 170.71875 180.09375 170.210938 180.601562 170.210938 181.222656 C 170.210938 181.84375 170.71875 182.351562 171.335938 182.351562 C 171.953125 182.351562 172.460938 181.84375 172.460938 181.222656 C 172.460938 180.601562 171.953125 180.09375 171.335938 180.09375 Z M 171.335938 180.09375 " fill-opacity="1" fill-rule="nonzero"/><path fill="#ff7da1" d="M 149.53125 154.464844 C 149.53125 154.464844 144.332031 157.382812 142.46875 160.066406 C 142.46875 160.066406 143.628906 151.164062 146.742188 149.980469 C 148.0625 149.449219 149.53125 154.464844 149.53125 154.464844 Z M 149.53125 154.464844 " fill-opacity="1" fill-rule="nonzero"/><path fill="#ff7da1" d="M 178.589844 156.882812 C 178.589844 156.882812 181.761719 159.828125 183.195312 162.484375 C 183.195312 162.484375 184.378906 154.8125 181.851562 153.425781 C 181.0625 153.425781 178.589844 156.882812 178.589844 156.882812 Z M 178.589844 156.882812 " fill-opacity="1" fill-rule="nonzero"/><g clip-path="url(#1c1c924f11)"><path fill="#000072" d="M 243.078125 182.757812 C 242.542969 183.292969 241.925781 183.695312 241.285156 184.015625 C 240.648438 184.339844 239.980469 184.585938 239.3125 184.800781 C 237.964844 185.203125 236.597656 185.460938 235.226562 185.605469 C 233.851562 185.757812 232.476562 185.804688 231.097656 185.796875 C 230.410156 185.785156 229.722656 185.753906 229.039062 185.710938 C 228.703125 185.691406 228.332031 185.664062 227.972656 185.617188 C 227.613281 185.574219 227.261719 185.503906 226.914062 185.433594 C 225.53125 185.148438 224.210938 184.734375 222.917969 184.296875 C 221.625 183.851562 220.359375 183.367188 219.097656 182.886719 C 216.578125 181.917969 214.089844 180.925781 211.574219 180.089844 C 209.066406 179.261719 206.503906 178.550781 203.96875 178.390625 C 202.714844 178.316406 201.460938 178.40625 200.335938 178.757812 C 199.214844 179.113281 198.242188 179.753906 197.496094 180.648438 C 196.757812 181.539062 196.28125 182.632812 196.160156 183.777344 C 196.039062 184.921875 196.246094 186.101562 196.730469 187.195312 C 196.96875 187.742188 197.269531 188.269531 197.628906 188.761719 C 197.796875 189.019531 198.003906 189.25 198.1875 189.488281 C 198.398438 189.71875 198.59375 189.957031 198.820312 190.167969 C 199.699219 191.046875 200.71875 191.8125 201.816406 192.460938 C 204.011719 193.765625 206.476562 194.660156 209.015625 195.277344 C 211.558594 195.890625 214.175781 196.242188 216.808594 196.40625 C 218.125 196.496094 219.449219 196.523438 220.773438 196.53125 L 222.769531 196.511719 L 224.761719 196.449219 C 227.410156 196.332031 230.054688 196.09375 232.660156 195.652344 C 233.964844 195.453125 235.242188 195.160156 236.511719 194.84375 C 237.777344 194.507812 239.015625 194.105469 240.21875 193.632812 C 241.421875 193.15625 242.574219 192.589844 243.644531 191.910156 C 244.71875 191.238281 245.691406 190.433594 246.503906 189.515625 C 247.320312 188.605469 247.949219 187.550781 248.324219 186.421875 C 248.519531 185.859375 248.625 185.269531 248.679688 184.683594 C 248.710938 184.386719 248.710938 184.089844 248.703125 183.796875 L 248.679688 183.351562 L 248.613281 182.921875 C 248.546875 182.34375 248.34375 181.808594 248.125 181.289062 C 247.859375 180.796875 247.554688 180.320312 247.152344 179.917969 C 246.75 179.515625 246.296875 179.160156 245.789062 178.863281 C 245.535156 178.714844 245.273438 178.582031 245.003906 178.472656 C 244.871094 178.414062 244.734375 178.367188 244.597656 178.3125 C 244.46875 178.269531 244.3125 178.222656 244.226562 178.203125 L 243.328125 177.980469 L 243.410156 177.078125 C 243.578125 175.148438 243.277344 173.101562 242.773438 171.132812 C 242.269531 169.148438 241.539062 167.210938 240.679688 165.332031 C 238.941406 161.582031 236.636719 158.085938 233.910156 154.957031 C 228.488281 148.683594 221.28125 143.988281 213.335938 141.683594 C 211.363281 141.074219 209.324219 140.6875 207.28125 140.363281 C 206.25 140.234375 205.230469 140.082031 204.191406 140.027344 C 203.675781 139.996094 203.15625 139.9375 202.640625 139.921875 L 201.085938 139.878906 C 196.921875 139.832031 192.738281 140.125 188.644531 140.84375 C 184.546875 141.558594 180.542969 142.773438 176.742188 144.4375 C 174.859375 145.300781 173.019531 146.265625 171.261719 147.363281 C 169.503906 148.460938 167.839844 149.699219 166.285156 151.066406 C 165.925781 151.386719 165.375 151.347656 165.058594 150.984375 C 164.746094 150.621094 164.777344 150.082031 165.132812 149.757812 C 168.347656 146.84375 172.054688 144.511719 175.972656 142.710938 C 179.914062 140.957031 184.066406 139.679688 188.292969 138.914062 C 192.550781 138.152344 196.835938 137.828125 201.128906 137.855469 L 202.746094 137.894531 C 203.285156 137.910156 203.820312 137.96875 204.359375 138 C 205.4375 138.058594 206.507812 138.214844 207.582031 138.34375 C 209.714844 138.675781 211.839844 139.085938 213.917969 139.714844 C 222.238281 142.117188 229.804688 147.035156 235.472656 153.585938 C 238.320312 156.847656 240.738281 160.496094 242.574219 164.445312 C 243.484375 166.421875 244.257812 168.464844 244.808594 170.601562 C 245.078125 171.671875 245.304688 172.753906 245.429688 173.859375 C 245.5625 174.96875 245.609375 176.101562 245.503906 177.257812 L 244.6875 176.132812 C 244.929688 176.191406 245.09375 176.246094 245.28125 176.308594 C 245.460938 176.371094 245.648438 176.441406 245.816406 176.515625 C 246.171875 176.664062 246.507812 176.832031 246.835938 177.023438 C 247.496094 177.40625 248.113281 177.878906 248.65625 178.433594 C 249.207031 178.992188 249.644531 179.652344 250.007812 180.351562 C 250.332031 181.066406 250.589844 181.816406 250.6875 182.578125 L 250.773438 183.152344 L 250.804688 183.71875 C 250.8125 184.09375 250.8125 184.476562 250.773438 184.851562 C 250.710938 185.605469 250.566406 186.355469 250.324219 187.074219 C 249.855469 188.507812 249.0625 189.816406 248.085938 190.910156 C 247.113281 192.011719 245.980469 192.933594 244.777344 193.695312 C 243.574219 194.460938 242.300781 195.085938 241.007812 195.605469 C 239.707031 196.125 238.382812 196.546875 237.046875 196.898438 C 235.707031 197.230469 234.359375 197.535156 233.007812 197.746094 C 230.300781 198.203125 227.574219 198.445312 224.855469 198.5625 L 222.816406 198.625 L 220.78125 198.648438 C 219.414062 198.636719 218.046875 198.609375 216.683594 198.507812 C 213.949219 198.339844 211.21875 197.96875 208.527344 197.316406 C 205.839844 196.664062 203.1875 195.710938 200.75 194.257812 C 199.53125 193.539062 198.378906 192.667969 197.355469 191.636719 C 197.089844 191.386719 196.859375 191.101562 196.609375 190.835938 C 196.382812 190.550781 196.144531 190.269531 195.941406 189.960938 C 195.507812 189.363281 195.140625 188.710938 194.839844 188.015625 C 194.230469 186.644531 193.949219 185.082031 194.125 183.53125 C 194.292969 181.992188 194.953125 180.5 195.941406 179.328125 C 196.917969 178.144531 198.289062 177.253906 199.734375 176.8125 C 201.1875 176.363281 202.671875 176.289062 204.089844 176.371094 C 206.941406 176.5625 209.609375 177.335938 212.199219 178.195312 C 214.789062 179.070312 217.300781 180.082031 219.796875 181.050781 C 221.050781 181.539062 222.296875 182.015625 223.546875 182.453125 C 224.796875 182.886719 226.054688 183.277344 227.300781 183.542969 C 227.613281 183.605469 227.921875 183.664062 228.230469 183.707031 C 228.542969 183.753906 228.832031 183.78125 229.175781 183.808594 C 229.828125 183.859375 230.488281 183.902344 231.144531 183.917969 C 232.457031 183.976562 233.773438 183.960938 235.078125 183.894531 C 235.40625 183.878906 235.730469 183.84375 236.054688 183.824219 C 236.375 183.785156 236.703125 183.761719 237.027344 183.71875 C 237.675781 183.644531 238.308594 183.53125 238.941406 183.398438 C 239.570312 183.261719 240.1875 183.085938 240.78125 182.871094 C 241.371094 182.652344 241.9375 182.378906 242.410156 182.015625 L 242.421875 182.007812 C 242.636719 181.84375 242.949219 181.882812 243.113281 182.101562 C 243.273438 182.308594 243.25 182.585938 243.078125 182.757812 Z M 243.078125 182.757812 " fill-opacity="1" fill-rule="nonzero"/></g><path fill="#000072" d="M 197.886719 178.34375 C 197.851562 177.886719 197.835938 177.496094 197.824219 177.074219 C 197.8125 176.660156 197.820312 176.246094 197.828125 175.835938 C 197.851562 175.015625 197.914062 174.195312 197.992188 173.378906 C 198.167969 171.746094 198.457031 170.121094 198.894531 168.53125 C 199.328125 166.941406 199.90625 165.382812 200.636719 163.890625 C 201.371094 162.410156 202.253906 160.984375 203.324219 159.710938 C 204.390625 158.433594 205.613281 157.289062 206.957031 156.320312 L 207.988281 155.625 C 208.339844 155.414062 208.707031 155.21875 209.066406 155.011719 C 209.246094 154.914062 209.417969 154.796875 209.609375 154.71875 L 210.167969 154.460938 L 210.726562 154.199219 C 210.914062 154.113281 211.101562 154.023438 211.292969 153.960938 C 214.34375 152.761719 217.632812 152.292969 220.828125 152.558594 L 220.832031 152.726562 C 220.050781 152.90625 219.269531 153.027344 218.5 153.1875 L 217.347656 153.453125 L 216.777344 153.574219 C 216.589844 153.617188 216.402344 153.679688 216.214844 153.734375 L 215.089844 154.046875 C 214.898438 154.09375 214.71875 154.15625 214.535156 154.226562 L 213.984375 154.417969 L 213.4375 154.601562 L 213.160156 154.691406 L 212.898438 154.804688 L 211.832031 155.25 C 211.652344 155.316406 211.484375 155.40625 211.3125 155.496094 L 210.289062 156.027344 C 210.121094 156.113281 209.960938 156.222656 209.796875 156.324219 C 209.476562 156.53125 209.148438 156.722656 208.832031 156.933594 L 207.914062 157.613281 C 206.726562 158.5625 205.636719 159.632812 204.710938 160.828125 C 202.851562 163.234375 201.597656 166.082031 200.828125 169.050781 C 200.449219 170.539062 200.179688 172.058594 200.015625 173.589844 C 199.945312 174.359375 199.882812 175.128906 199.867188 175.894531 C 199.855469 176.277344 199.851562 176.664062 199.851562 177.046875 C 199.851562 177.421875 199.863281 177.824219 199.890625 178.164062 Z M 197.886719 178.34375 " fill-opacity="1" fill-rule="nonzero"/><path fill="#000072" d="M 190.574219 196.582031 L 220.828125 196.582031 L 220.828125 198.597656 L 190.574219 198.597656 Z M 190.574219 196.582031 " fill-opacity="1" fill-rule="nonzero"/><path fill="#ffffff" d="M 135.808594 179.59375 C 135.808594 179.59375 126.90625 188.726562 132.160156 194.675781 C 136.597656 199.707031 149.484375 193.957031 165.804688 193.886719 C 165.804688 193.886719 168 188.210938 160.910156 184.761719 C 153.824219 181.3125 138.601562 184.972656 138.601562 184.972656 C 138.601562 184.972656 135.808594 182.832031 135.808594 179.59375 Z M 135.808594 179.59375 " fill-opacity="1" fill-rule="nonzero"/><path fill="#ffffff" d="M 135.234375 180.316406 C 135.113281 182.195312 135.523438 184.875 138.117188 187.035156 C 138.117188 187.035156 164.640625 180.320312 165.804688 193.882812 C 165.804688 193.882812 168.199219 184.773438 156.695312 183.597656 C 147.863281 182.691406 138.601562 184.972656 138.601562 184.972656 C 138.601562 184.972656 136.628906 183.554688 135.9375 180.261719 C 135.851562 179.855469 135.261719 179.902344 135.234375 180.316406 Z M 135.234375 180.316406 " fill-opacity="0.6" fill-rule="nonzero"/><path fill="#000072" d="M 138.371094 197.75 C 135.335938 197.75 132.984375 197.136719 131.40625 195.34375 C 125.597656 188.761719 134.699219 179.289062 135.089844 178.890625 C 135.375 178.597656 135.816406 178.507812 136.191406 178.664062 C 136.570312 178.816406 136.816406 179.1875 136.816406 179.601562 C 136.816406 181.683594 138.21875 183.25 138.878906 183.882812 C 141.660156 183.261719 154.683594 180.613281 161.347656 183.855469 C 169.175781 187.667969 166.765625 194.191406 166.738281 194.253906 C 166.589844 194.640625 166.214844 194.894531 165.804688 194.898438 C 159.414062 194.925781 153.613281 195.828125 148.492188 196.621094 C 144.574219 197.222656 141.179688 197.75 138.371094 197.75 Z M 135.195312 181.867188 C 133.085938 184.570312 129.542969 190.179688 132.917969 194.003906 C 135.234375 196.628906 140.945312 195.742188 148.183594 194.621094 C 153.167969 193.84375 158.796875 192.972656 165.027344 192.882812 C 165.285156 191.464844 165.328125 188.03125 160.472656 185.667969 C 153.785156 182.414062 138.988281 185.921875 138.839844 185.953125 C 138.542969 186.023438 138.234375 185.960938 137.996094 185.773438 C 137.890625 185.699219 136.027344 184.242188 135.195312 181.867188 Z M 136.53125 180.300781 Z M 136.53125 180.300781 " fill-opacity="1" fill-rule="nonzero"/><path fill="#000072" d="M 155.8125 193.695312 C 155.863281 193.605469 155.902344 193.449219 155.941406 193.316406 C 155.976562 193.179688 156.007812 193.035156 156.042969 192.886719 C 156.097656 192.59375 156.140625 192.296875 156.167969 191.996094 C 156.195312 191.695312 156.195312 191.386719 156.179688 191.078125 C 156.164062 190.765625 156.109375 190.460938 156.042969 190.140625 C 156.257812 190.375 156.472656 190.628906 156.652344 190.910156 C 156.839844 191.183594 157.007812 191.480469 157.15625 191.792969 C 157.304688 192.101562 157.433594 192.421875 157.546875 192.753906 C 157.597656 192.917969 157.65625 193.085938 157.703125 193.257812 C 157.75 193.4375 157.792969 193.585938 157.824219 193.808594 L 157.859375 194.03125 C 157.945312 194.628906 157.53125 195.179688 156.9375 195.269531 C 156.34375 195.355469 155.792969 194.941406 155.703125 194.347656 C 155.667969 194.121094 155.707031 193.894531 155.8125 193.695312 Z M 155.8125 193.695312 " fill-opacity="1" fill-rule="nonzero"/><path fill="#000072" d="M 160.417969 193.425781 C 160.449219 193.277344 160.464844 193.0625 160.480469 192.871094 C 160.492188 192.675781 160.503906 192.472656 160.503906 192.273438 C 160.507812 191.867188 160.488281 191.460938 160.445312 191.050781 C 160.40625 190.644531 160.339844 190.238281 160.242188 189.828125 C 160.152344 189.421875 160.015625 189.023438 159.863281 188.621094 C 160.160156 188.925781 160.449219 189.257812 160.703125 189.617188 C 160.957031 189.972656 161.199219 190.347656 161.40625 190.746094 C 161.617188 191.136719 161.8125 191.546875 161.980469 191.964844 C 162.066406 192.175781 162.144531 192.386719 162.21875 192.605469 C 162.292969 192.828125 162.359375 193.03125 162.425781 193.300781 L 162.445312 193.394531 C 162.578125 193.957031 162.230469 194.519531 161.667969 194.652344 C 161.109375 194.785156 160.550781 194.433594 160.417969 193.871094 C 160.390625 193.722656 160.390625 193.570312 160.417969 193.425781 Z M 160.417969 193.425781 " fill-opacity="1" fill-rule="nonzero"/><path fill="#ffffff" d="M 187.371094 177.167969 C 187.371094 177.167969 187.148438 183.851562 183.707031 186.449219 C 183.707031 186.449219 166.039062 180.515625 165.804688 193.882812 C 165.804688 193.882812 187.148438 197.625 190.574219 197.503906 C 194 197.378906 204.023438 191.441406 187.371094 177.167969 Z M 187.371094 177.167969 " fill-opacity="1" fill-rule="nonzero"/><path fill="#ffffff" d="M 193.34375 183.25 L 188.644531 180.359375 C 188.644531 180.359375 187.507812 186.605469 183.921875 188.164062 C 183.921875 188.164062 171.59375 184.304688 166.546875 189.933594 C 166.546875 189.933594 169.09375 182.121094 183.703125 186.453125 C 183.703125 186.453125 186.4375 183.320312 187.613281 177.640625 Z M 193.34375 183.25 " fill-opacity="0.6" fill-rule="nonzero"/><path fill="#000072" d="M 190.421875 198.515625 C 186.429688 198.515625 166.488281 195.027344 165.628906 194.878906 C 165.136719 194.792969 164.785156 194.363281 164.792969 193.867188 C 164.859375 190.332031 166.066406 187.703125 168.394531 186.054688 C 173.222656 182.632812 181.300781 184.675781 183.480469 185.324219 C 186.136719 182.84375 186.363281 177.195312 186.363281 177.136719 C 186.378906 176.75 186.609375 176.40625 186.964844 176.246094 C 187.316406 176.085938 187.730469 176.148438 188.023438 176.398438 C 197.714844 184.703125 198.425781 190.246094 197.316406 193.4375 C 196.144531 196.820312 192.691406 198.441406 190.617188 198.515625 C 190.554688 198.515625 190.492188 198.515625 190.421875 198.515625 Z M 166.855469 193.039062 C 174.277344 194.328125 187.488281 196.496094 190.378906 196.496094 C 190.4375 196.496094 190.492188 196.496094 190.542969 196.488281 C 191.804688 196.449219 194.535156 195.308594 195.417969 192.769531 C 196.597656 189.371094 194.035156 184.601562 188.171875 179.222656 C 187.820312 181.566406 186.863281 185.328125 184.308594 187.257812 C 184.042969 187.460938 183.695312 187.511719 183.382812 187.40625 C 183.292969 187.375 174.214844 184.394531 169.550781 187.707031 C 167.941406 188.847656 167.054688 190.601562 166.855469 193.039062 Z M 166.855469 193.039062 " fill-opacity="1" fill-rule="nonzero"/><path fill="#000072" d="M 167.59375 193.582031 C 167.703125 193.335938 167.808594 193.152344 167.925781 192.945312 C 168.042969 192.742188 168.15625 192.546875 168.28125 192.351562 C 168.527344 191.964844 168.785156 191.59375 169.082031 191.238281 C 169.378906 190.886719 169.679688 190.550781 170.039062 190.269531 C 170.390625 189.980469 170.777344 189.742188 171.1875 189.609375 C 170.855469 189.890625 170.617188 190.238281 170.421875 190.597656 C 170.222656 190.957031 170.085938 191.34375 169.964844 191.730469 C 169.84375 192.117188 169.753906 192.519531 169.683594 192.917969 C 169.648438 193.121094 169.621094 193.320312 169.59375 193.515625 C 169.574219 193.714844 169.546875 193.929688 169.546875 194.09375 C 169.542969 194.667969 169.070312 195.132812 168.5 195.128906 C 167.929688 195.121094 167.464844 194.652344 167.472656 194.078125 C 167.472656 193.929688 167.503906 193.792969 167.5625 193.664062 Z M 167.59375 193.582031 " fill-opacity="1" fill-rule="nonzero"/><path fill="#000072" d="M 171.03125 193.9375 C 171.140625 193.691406 171.246094 193.5 171.363281 193.292969 C 171.480469 193.09375 171.59375 192.898438 171.722656 192.699219 C 171.96875 192.3125 172.234375 191.941406 172.53125 191.59375 C 172.824219 191.242188 173.140625 190.910156 173.507812 190.632812 C 173.867188 190.359375 174.265625 190.128906 174.683594 190.019531 C 174.339844 190.285156 174.085938 190.617188 173.882812 190.96875 C 173.675781 191.316406 173.53125 191.703125 173.40625 192.089844 C 173.277344 192.476562 173.191406 192.875 173.121094 193.273438 C 173.082031 193.476562 173.058594 193.671875 173.03125 193.871094 C 173.011719 194.066406 172.984375 194.28125 172.984375 194.445312 C 172.976562 195.023438 172.515625 195.484375 171.945312 195.484375 C 171.375 195.484375 170.910156 195.011719 170.910156 194.4375 C 170.910156 194.289062 170.941406 194.148438 171 194.019531 Z M 171.03125 193.9375 " fill-opacity="1" fill-rule="nonzero"/><path fill="#000072" d="M 183.195312 162.488281 C 182.746094 162.046875 182.339844 161.585938 181.925781 161.132812 L 180.730469 159.765625 C 180.339844 159.308594 179.941406 158.863281 179.546875 158.445312 C 179.34375 158.238281 179.144531 158.03125 178.9375 157.863281 C 178.742188 157.6875 178.523438 157.53125 178.382812 157.480469 L 178.335938 157.457031 C 178.03125 157.335938 177.878906 156.980469 178.003906 156.675781 C 178.019531 156.632812 178.042969 156.59375 178.0625 156.558594 C 178.351562 156.128906 178.648438 155.757812 178.976562 155.390625 C 179.304688 155.03125 179.652344 154.683594 180.03125 154.367188 C 180.410156 154.054688 180.8125 153.769531 181.257812 153.542969 C 181.695312 153.320312 182.164062 153.140625 182.644531 153.082031 C 182.25 153.363281 181.90625 153.667969 181.578125 153.992188 C 181.257812 154.320312 180.960938 154.664062 180.675781 155.015625 C 180.390625 155.371094 180.121094 155.738281 179.859375 156.101562 C 179.597656 156.46875 179.335938 156.855469 179.113281 157.21875 L 178.792969 156.296875 C 179.222656 156.460938 179.5 156.683594 179.761719 156.90625 C 180.015625 157.136719 180.25 157.367188 180.453125 157.613281 C 180.875 158.09375 181.234375 158.609375 181.574219 159.132812 C 181.90625 159.65625 182.210938 160.203125 182.480469 160.761719 C 182.757812 161.316406 183.007812 161.882812 183.195312 162.488281 Z M 183.195312 162.488281 " fill-opacity="1" fill-rule="nonzero"/><path fill="#000072" d="M 141.867188 160.785156 C 142.183594 159.988281 142.632812 159.246094 143.132812 158.539062 C 143.632812 157.839844 144.210938 157.183594 144.84375 156.585938 C 145.472656 155.976562 146.179688 155.449219 146.929688 154.984375 L 147.503906 154.648438 C 147.699219 154.550781 147.898438 154.453125 148.101562 154.359375 L 148.402344 154.214844 L 148.714844 154.097656 L 149.339844 153.871094 L 148.949219 154.65625 C 148.78125 154.136719 148.585938 153.59375 148.386719 153.066406 C 148.175781 152.539062 147.964844 152.015625 147.714844 151.507812 C 147.472656 151 147.203125 150.503906 146.890625 150.035156 C 146.570312 149.578125 146.214844 149.132812 145.699219 148.839844 C 145.992188 148.878906 146.277344 148.996094 146.542969 149.144531 C 146.8125 149.292969 147.054688 149.484375 147.28125 149.683594 C 147.742188 150.085938 148.121094 150.5625 148.46875 151.058594 C 148.8125 151.554688 149.113281 152.070312 149.390625 152.605469 C 149.664062 153.140625 149.902344 153.675781 150.113281 154.257812 C 150.222656 154.558594 150.074219 154.894531 149.78125 155.011719 L 149.726562 155.03125 C 148.988281 155.328125 148.25 155.628906 147.5625 156.050781 C 146.863281 156.445312 146.1875 156.898438 145.546875 157.394531 C 144.894531 157.886719 144.269531 158.421875 143.660156 158.992188 C 143.042969 159.566406 142.457031 160.167969 141.867188 160.785156 Z M 141.867188 160.785156 " fill-opacity="1" fill-rule="nonzero"/><path fill="#000072" d="M 249.730469 183.597656 C 249.796875 189.753906 243.066406 197.242188 220.527344 197.230469 L 219.617188 197.226562 L 190.992188 197.042969 C 190.734375 197.09375 190.496094 197.125 190.28125 197.132812 C 189.875 197.140625 189.222656 197.105469 188.382812 197.023438 C 182.113281 196.421875 165.511719 193.507812 165.511719 193.507812 C 149.195312 193.574219 136.304688 199.316406 131.871094 194.285156 C 129.839844 191.980469 129.929688 189.191406 130.804688 186.648438 C 131.058594 186.964844 131.332031 187.261719 131.621094 187.539062 C 134.503906 190.238281 138.714844 191.03125 142.648438 190.808594 C 146.582031 190.585938 150.402344 189.472656 154.289062 188.851562 C 158.179688 188.238281 162.328125 188.148438 165.878906 189.859375 C 168.042969 187.511719 171.847656 188.429688 174.890625 189.378906 C 178.390625 190.464844 182.03125 191.359375 185.6875 191.042969 C 189.335938 190.730469 193.03125 189.019531 194.957031 185.886719 C 197.585938 189.929688 208.035156 192.4375 215.496094 193.050781 C 228.25 194.09375 244.453125 192.726562 249.730469 183.597656 Z M 249.730469 183.597656 " fill-opacity="0.2" fill-rule="nonzero"/></svg>